<?xml version="1.0" encoding="UTF-8"?>
<svg width="184px" height="184px" viewBox="0 0 184 184" version="1.1" xmlns="http://www.w3.org/2000/svg" xmlns:xlink="http://www.w3.org/1999/xlink">
    <title>Crunchyroll Logomark/Registered Mark/With/184x184</title>
    <g id="Crunchyroll-Logomark/Registered-Mark/With/184x184" stroke="none" stroke-width="1" fill="none" fill-rule="evenodd">
        <path d="M19.7886429,174.167625 C21.3644476,174.167625 22.7750645,173.830797 24.0444023,173.315331 L24.0444023,176.714822 C22.5674929,177.289475 20.9188752,177.667196 19.0996359,177.667196 C13.8831791,177.667196 11,174.571173 11,168.930105 C11,163.286885 13.8831791,160.161807 19.0996359,160.161807 C20.9188752,160.161807 22.5674929,160.533071 24.0444023,161.112029 L24.0444023,164.51152 C22.7750645,164.002511 21.3644476,163.699043 19.7886429,163.699043 C16.904377,163.699043 15.1166538,164.548108 15.1166538,168.930105 C15.1166538,173.280895 16.904377,174.167625 19.7886429,174.167625 M36.9603493,160.162237 L36.9603493,163.681179 C34.6694554,163.713463 32.1688164,163.684407 32.1688164,164.685207 L32.1688164,177.323266 L28.0662905,177.323266 L28.0662905,162.336018 C28.0662905,159.804962 36.9603493,160.162237 36.9603493,160.162237 M55.1603497,160.436542 L55.1603497,169.711698 C55.1603497,174.710317 53.4769556,177.65891 47.6182226,177.65891 C41.7464484,177.65891 40.1086983,174.710317 40.1086983,169.711698 L40.1086983,160.436542 L44.1460185,160.436542 L44.1460185,170.259448 C44.1460185,172.974521 45.1490997,173.904296 47.6182226,173.904296 C50.1210351,173.904296 51.1219427,172.974521 51.1219427,170.259448 L51.1219427,160.436542 L55.1603497,160.436542 Z M85.2092057,174.179247 C86.7882706,174.179247 88.196714,173.843495 89.4693121,173.326953 L89.4693121,176.731825 C87.9924027,177.30863 86.3416115,177.684199 84.5212854,177.684199 C79.2993948,177.684199 76.4118686,174.588176 76.4118686,168.939575 C76.4118686,163.28667 79.2993948,160.162668 84.5212854,160.162668 C86.3416115,160.162668 87.9924027,160.532856 89.4693121,161.111813 L89.4693121,164.512381 C88.196714,164.005524 86.7882706,163.699904 85.2092057,163.699904 C82.3227663,163.699904 80.5361298,164.552198 80.5361298,168.939575 C80.5361298,173.294669 82.3227663,174.179247 85.2092057,174.179247 M108.228125,167.169666 L108.228125,177.324019 L104.161463,177.324019 L104.161463,166.830685 C104.161463,165.339171 103.824566,163.744348 99.9926442,163.744348 C98.8656722,163.744348 97.9397511,163.952041 97.2572647,164.253357 L97.2572647,177.324019 L93.1558255,177.324019 L93.1558255,154 L97.2572647,154 L97.2572647,160.735491 C98.2168754,160.364227 99.3438474,160.161914 100.676217,160.161914 C105.4308,160.161914 108.228125,162.76507 108.228125,167.169666 M113.555758,183.995695 C116.673678,176.446651 116.454152,177.04175 116.673678,176.444499 L110.550861,160.436004 L114.894649,160.436004 L118.725484,172.211007 L122.483506,160.436004 L126.822946,160.436004 L120.331718,177.730473 L117.84738,184 L113.555758,183.995695 Z M138.579971,160.162237 L138.579971,163.681179 C136.286903,163.713463 133.765616,163.684407 133.765616,164.676598 L133.765616,177.323266 L129.66309,177.323266 L129.66309,162.336018 C129.66309,159.797429 138.579971,160.162237 138.579971,160.162237 M152.370435,168.927846 C152.370435,164.441464 150.82506,163.560114 148.389626,163.560114 C145.950933,163.560114 144.409904,164.441464 144.409904,168.927846 C144.409904,173.416379 145.950933,174.295577 148.389626,174.295577 C150.82506,174.295577 152.370435,173.416379 152.370435,168.927846 M156.492522,168.927846 C156.492522,174.567837 153.60391,177.65848 148.389626,177.65848 C143.17643,177.65848 140.28999,174.567837 140.28999,168.927846 C140.28999,163.286778 143.17643,160.197211 148.389626,160.197211 C153.60391,160.197211 156.492522,163.286778 156.492522,168.927846 M160.011023,177.324234 L164.112462,177.324234 L164.112462,154.000215 L160.011023,154.000215 L160.011023,177.324234 Z M168.898561,177.324234 L173,177.324234 L173,154.000215 L168.898561,154.000215 L168.898561,177.324234 Z M73.7330007,166.733511 L73.7330007,177.316163 L69.7500186,177.316163 L69.7500186,166.821754 C69.7500186,165.331315 69.8206581,163.763395 66.1756589,163.763395 C65.0410796,163.763395 62.9686248,163.911901 62.9686248,164.632907 L62.9686248,177.316163 L58.9530398,177.316163 L58.9530398,163.341553 C58.9530398,160.525323 62.4676276,160.154059 66.7125193,160.154059 C71.3595129,160.154059 73.7330007,162.029751 73.7330007,166.733511" id="Logotype" fill="#F47521"></path>
        <path d="M180,154 C181.682396,154 183,155.317812 183,157 C183,158.682188 181.682396,160 180,160 C178.318285,160 177,158.682188 177,157 C177,155.317812 178.318285,154 180,154 Z M180,154.585366 C178.682396,154.585366 177.610481,155.668884 177.610481,157 C177.610481,158.324464 178.682396,159.402069 180,159.402069 C181.318285,159.402069 182.3902,158.324464 182.3902,157 C182.3902,155.668884 181.318285,154.585366 180,154.585366 Z M180.171112,155.5 C180.895202,155.5 181.285714,155.982657 181.285714,156.436616 C181.285714,156.867094 180.977591,157.202345 180.518085,157.29431 L180.518085,157.29431 L181.228109,158.034602 C181.295762,158.114175 181.282365,158.175486 181.267629,158.204837 C181.242845,158.256364 181.184569,158.285714 181.108209,158.285714 L181.108209,158.285714 L180.920655,158.285714 C180.836256,158.285714 180.771282,158.255711 180.725064,158.196357 L180.725064,158.196357 L179.912556,157.350403 L179.423578,157.350403 L179.423578,158.112871 C179.423578,158.21462 179.351236,158.285714 179.246072,158.285714 L179.246072,158.285714 L179.106077,158.285714 C179.000913,158.285714 178.928571,158.21462 178.928571,158.112871 L178.928571,158.112871 L178.928571,155.683931 C178.928571,155.577616 179.002923,155.5 179.106077,155.5 L179.106077,155.5 Z M180.171112,155.959829 L179.423578,155.959829 L179.423578,156.902315 L180.183169,156.902315 C180.473207,156.902315 180.766594,156.742516 180.766594,156.436616 C180.766594,156.164632 180.510717,155.959829 180.171112,155.959829 L180.171112,155.959829 Z" id="Registered" fill="#F47521"></path>
        <path d="M92.000544,0 C130.107774,0 161,30.8933141 161,69.000544 C161,70.3647802 160.960835,71.7192252 160.881418,73.0627912 C158.702339,41.5493697 132.451127,16.661306 100.38396,16.661306 C66.8883712,16.661306 39.7352837,43.8143935 39.7352837,77.3088948 C39.7352837,109.563181 64.9149067,135.932975 96.6905139,137.844429 C95.1402455,137.946693 93.5758343,138 92.000544,138 C53.8933141,138 23,107.108862 23,69.000544 C23,30.8933141 53.8933141,0 92.000544,0 Z M98.0835582,32.2830279 C106.214039,32.2830279 113.874116,34.2895749 120.602079,37.830093 C112.110919,40.8936894 106.040218,49.0219975 106.040218,58.5702064 C106.040218,70.7431136 115.908909,80.6128916 128.081817,80.6128916 C135.276923,80.6128916 141.66702,77.1636296 145.690978,71.8294954 C146.223305,74.7062342 146.505764,77.6720563 146.505764,80.7041477 C146.505764,107.44652 124.827017,129.126354 98.0835582,129.126354 C71.3411857,129.126354 49.6635248,107.44652 49.6635248,80.7041477 C49.6635248,53.9617752 71.3411857,32.2830279 98.0835582,32.2830279 Z" id="Logomark" fill="#F47521"></path>
    </g>
</svg>